# xmcd
#
# Track frame offsets:
#	150
#	23166
#	40663
#	55850
#	81348
#	90549
#	112813
#	124344
#	144083
#	180917
#
# Disc length: 2552 seconds
#
# Revision: 0
# Processed by: cddbd v1.5.1PL0 Copyright (c) Steve Scherf et al.
# Submitted via: dBpowerAMP V4.0
#
DISCID=7109f60a
DTITLE=Remote Viewer, The - Let Your Heart Draw A Line
DYEAR=1900
DGENRE=
TTITLE0=They're Closing Down The Shop
TTITLE1=To Completion
TTITLE2=Sometimes, You Can't Decide
TTITLE3=Last Night You Said Goodbye, Now It Seems Years
TTITLE4=Take Your Lights With You
TTITLE5=I'm Sad Feeling!
TTITLE6=The Fucking Bleeding Hearts Brigade
TTITLE7=It's So Funny How We Don't Talk Anymore
TTITLE8=Kindtransport
TTITLE9=How Did You Both Look Me In The Eye?
EXTD=
EXTT0=
EXTT1=
EXTT2=
EXTT3=
EXTT4=
EXTT5=
EXTT6=
EXTT7=
EXTT8=
EXTT9=
PLAYORDER=
